<svg xmlns="http://www.w3.org/2000/svg" xmlns:xlink="http://www.w3.org/1999/xlink" version="1.1" width="340.789" height="172.62299" viewBox="0 0 340.789 172.62299">
<defs>
<clipPath id="clip_0">
<path transform="matrix(0,.686,.686,0,17.426003,-3.5559998)" d="M0 0H612V792H0Z"/>
</clipPath>
<path id="font_1_1" d="M0 0Z"/>
<path id="font_2_1" d="M0 0Z"/>
<path id="font_3_1" d="M0 0Z"/>
<path id="font_4_1" d="M0 0Z"/>
<path id="font_5_1" d="M0 0Z"/>
<path id="font_6_1" d="M0 0Z"/>
<path id="font_7_1" d="M0 0Z"/>
<path id="font_8_1" d="M0 0Z"/>
<path id="font_9_1" d="M0 0Z"/>
<path id="font_10_1" d="M0 0Z"/>
<path id="font_11_1" d="M0 0Z"/>
<path id="font_12_1" d="M.84199526 .76342776C.84199526 .7600911 .82232668 .7143962 .7829895 .6263428 .64766439 .32483927 .58000186 .13406372 .58000186 .054016115 .58000186 .044006349 .58399966 .039001466 .59199526 .039001466 .6046702 .039001466 .6590068 .08700053 .7550049 .18299866 .7596741 .18433126 .76400759 .18499756 .7680054 .18499756 .77667239 .18499756 .78100588 .18233235 .78100588 .17700196 .78100588 .17233277 .7666728 .15765889 .7380066 .13298035 .71934 .11564636 .6911723 .08947245 .6535034 .05445862 .61583456 .019454956 .5843353 .001953125 .55900576 .001953125 .5316722 .001953125 .5103404 .0142873129 .49501039 .03895569 .4816742 .060287477 .4750061 .08529154 .4750061 .113967899 .4750061 .17596944 .50433859 .25897218 .56300356 .36297608 .5856679 .40364585 .6349996 .47998557 .71099856 .59199526L.81500247 .7460022C.7469991 .69865927 .66266378 .6006419 .56199648 .45195008 .4880015 .3426056 .41900126 .22792053 .35499574 .1078949 .31833396 .039220174 .29033409 .0048828127 .2709961 .0048828127 .24833171 .0048828127 .23133342 .0185496 .22000122 .04588318 .21133423 .06655375 .20700073 .09022522 .20700073 .11689758 .20700073 .19691468 .31500245 .40561424 .53100588 .7429962 .4650065 .69499209 .3436737 .5309804 .16700745 .2509613 .12434387 .18295796 .0883433 .13195801 .059005739 .097961429 .0043385827 .03395589-.044993085 .001953125-.08898926 .001953125-.12232462 .001953125-.15015666 .012135823-.17248535 .03250122-.19482422 .05287679-.20599365 .079427089-.20599365 .1121521-.20599365 .14354451-.19666036 .1717631-.17799378 .19680786-.1593272 .22185262-.1346639 .234375-.104003909 .234375-.06466675 .234375-.04499817 .2156372-.04499817 .17816162-.04499817 .1547343-.055664064 .13833618-.07699585 .12896729-.09033203 .124949138-.11000061 .11892191-.13600159 .11088562-.15667217 .103530887-.16700745 .08947754-.16700745 .068725589-.16700745 .054667158-.15800984 .042617799-.14001465 .032577516-.12467448 .023880005-.1090037 .01953125-.09300232 .01953125-.03634135 .01953125 .041656496 .09762573 .14099121 .2538147 .25899253 .43870036 .35732524 .5778656 .43598939 .6713104 .49332176 .73939517 .5309906 .7734375 .548996 .7734375 .55899557 .7734375 .56399539 .769104 .56399539 .760437 .56399539 .74641928 .5443268 .6937205 .5049896 .6023407 .45966087 .49760438 .41133119 .38053385 .3600006 .25112916 .34533183 .21377564 .33299766 .18041992 .32299806 .15106201 .30966188 .1110433 .30166117 .076690677 .29899598 .04800415 .35699974 .15739949 .43766786 .29081217 .54100039 .4482422 .6849925 .66503909 .7803243 .7734375 .82699587 .7734375 .8369954 .7734375 .84199526 .7701009 .84199526 .76342776Z"/>
<path id="font_12_2" d="M.44000245 .3895874C.43000285 .35110475 .40567018 .30233766 .3670044 .24328614 .32500205 .17893474 .29833476 .13149517 .28700257 .10096741L.29600526 .09500122C.32266746 .10366821 .34649659 .12349955 .36749269 .15449524 .38849894 .18549092 .40100099 .20199077 .40499879 .20399475H.40899659C.41166178 .20065816 .41299439 .19698589 .41299439 .1929779 .41299439 .16562398 .3896586 .12808736 .34298707 .08036804 .29632569 .032648725 .25932823 .0087890629 .23199463 .0087890629 .21066284 .0087890629 .19599915 .0141398119 .18800354 .024841309 .18599956 .027516684 .18033345 .042236329 .17100525 .069000247 .14833069 .028859457 .11732992 .0087890629 .07800293 .0087890629 .05999756 .0087890629 .044326784 .016448975 .0309906 .0317688 .01766459 .047098798 .011001587 .06376139 .011001587 .08175659 .011001587 .13239543 .044835409 .19685872 .11250305 .27514649 .1801707 .35343424 .2386729 .39257813 .28800965 .39257813 .29400126 .39257813 .30332948 .3891449 .31599427 .38227845 .32866923 .375412 .33833824 .37165324 .34500123 .3710022 .34899903 .37287394 .35133363 .3772532 .352005 .38414 .3593394 .3897654 .3733368 .39257813 .3939972 .39257813 .41399638 .39257813 .42933146 .3915812 .44000245 .3895874M.32600404 .34300233C.32400004 .3516693 .31799827 .3560028 .30799867 .3560028 .29867045 .3560028 .28867088 .3516693 .27799989 .34300233V.34399415C.24533589 .31666056 .21400452 .2809957 .18400574 .23699951 .14933777 .18566895 .13200379 .14266968 .13200379 .10800171 .13200379 .09400431 .13766988 .087005618 .14900208 .087005618 .16433208 .087005618 .19633484 .124669399 .24501038 .19999695 .28833518 .26733909 .31533305 .31500755 .32600404 .34300233Z"/>
<path id="font_12_4" d="M.28300477 .1880951C.28300477 .1407725 .2623342 .09661356 .22099304 .055618287 .17966207 .014633179 .1353302-.005859375 .08799744-.005859375 .059331258-.005859375 .033996583 .0011240641 .011993408 .015090942-.013336182 .031041464-.026000977 .052317304-.026000977 .07891846-.026000977 .09486898-.020833334 .10816447-.010498047 .11880493-.00016276042 .12944539 .013005574 .13476563 .029006958 .13476563 .059005739 .13476563 .07400513 .119125369 .07400513 .08784485 .07400513 .077194217 .07017008 .067377727 .0625 .058395387 .054840089 .049413045 .04567464 .044921876 .035003663 .044921876 .028340659 .044921876 .02267456 .044921876 .018005372 .044921876 .030008952 .033203126 .044006349 .02734375 .05999756 .02734375 .10066732 .02734375 .13100179 .060638429 .15100098 .12722779 .16499837 .1738383 .17199707 .22444153 .17199707 .27903749V.31100465C.16533406 .30633546 .14216614 .28583274 .102493289 .24949646 .062830608 .21317037 .041997274 .19500733 .039993287 .19500733 .03333028 .19500733 .02999878 .19833882 .02999878 .20500183 .02999878 .2103424 .046666463 .22834778 .08000183 .25901795 .101994838 .27901713 .12432861 .29935203 .14700318 .32002259 .17166138 .34402976 .19065857 .3670349 .20399475 .3890381 .21399434 .40637208 .22266133 .41503907 .22999573 .41503907 .23999532 .41503907 .24499512 .41037498 .24499512 .40104676 .24499512 .39904277 .23949687 .39120994 .22850037 .37754823 .21750386 .3638865 .21200562 .35338847 .21200562 .34605409 .21200562 .34072367 .22383626 .31922914 .24749756 .28157044 .27116905 .24391175 .28300477 .2127533 .28300477 .1880951Z"/>
<path id="font_12_3" d="M.25700379 .4776764C.25700379 .45444236 .2530009 .43900553 .24499512 .43136598 .23699951 .42373658 .22133382 .41992188 .19799805 .41992188 .17133586 .41992188 .15800476 .42655946 .15800476 .4398346V.48364259C.15800476 .49227906 .16633606 .5007426 .18299866 .5090332 .19967143 .517334 .21300762 .5214844 .2230072 .5214844 .24567159 .5214844 .25700379 .5068817 .25700379 .4776764M.20799256 .18699646C.20799256 .1569875 .18432617 .11864217 .13699341 .07196045 .089660648 .0252889 .050664266 .001953125 .020004273 .001953125-.011998494 .001953125-.027999878 .024291993-.027999878 .06896973-.027999878 .09296671-.01900228 .12063599-.0010070801 .15197754L.044006349 .22998047C.04933675 .24198406 .06666565 .28199259 .09599304 .3500061H.20199585C.14800008 .25534059 .10800171 .17000835 .08200073 .0940094L.09199524 .087005618C.117335 .09567261 .1386668 .11367289 .1559906 .14100647 .17465718 .17166646 .18965657 .18999736 .20098877 .19599915H.20498657C.20699056 .19399517 .20799256 .19099427 .20799256 .18699646Z"/>
<path id="font_13_1" d="M0 0Z"/>
<path id="font_13_2" d="M.08300781 .50878909C.10091146 .51171877 .11450195 .5218099 .1237793 .5390625 .13305664 .5563151 .13769531 .5761719 .13769531 .5986328 .13769531 .60091146 .13761394 .602946 .13745117 .6047363 .1372884 .6065267 .13688152 .6085612 .13623047 .61083987H.08300781V.71728518H.1875V.6191406C.1875 .57747396 .1788737 .54207357 .1616211 .51293948 .14436849 .48380534 .11816406 .4671224 .08300781 .46289063V.50878909Z"/>
<path id="font_14_1" d="M.16700745 .6044159C.16767884 .6044159 .16868083 .6044159 .17001343 .6044159 .19733684 .6070709 .21700032 .60839846 .2290039 .60839846 .2516683 .60839846 .2713318 .60706076 .28799439 .6043854 .30466715 .60172018 .31933595 .59688827 .33200074 .5898895 .34466554 .5828908 .35449729 .57255557 .36149598 .55888369 .36849467 .5452118 .37199403 .5273692 .37199403 .50535586 .37199403 .47997538 .36716209 .45843507 .35749818 .44073487 .34783427 .42303468 .33449809 .4091746 .31748963 .39915467 .30049134 .38913474 .2816569 .3819529 .26098634 .37760926 .24032593 .3732656 .21799724 .37109376 .19400025 .37109376H.16700745V.6044159M.07699585 .25117494C.07699585 .19513448 .075159709 .14709981 .07148743 .10707092 .06782532 .06704203 .05866496 .031351728 .044006349 0 .06667074 0 .10066732-.0006510417 .1459961-.001953125 .19066365-.0032552083 .22432964-.00390625 .24699402-.00390625 .2829946-.00390625 .3161621-.00057474776 .34649659 .006088257 .37683106 .012761434 .40382896 .023935954 .42749024 .039611818 .4511617 .055287679 .46966554 .07646688 .4830017 .103149417 .4963379 .12983196 .503006 .16218059 .503006 .20019531 .503006 .22621663 .49850465 .24872844 .48950196 .2677307 .48049928 .28674317 .46816508 .30258689 .4524994 .31526185 .4368337 .3279368 .41900126 .33810935 .39900209 .34577943 .3790029 .3534495 .3560028 .36028544 .33000184 .36628724V.36828614C.3733368 .38630168 .40750123 .40748088 .43249513 .43182374 .45749919 .4561666 .47000123 .48801676 .47000123 .52737429 .47000123 .5680644 .4558309 .5984141 .42749024 .61842349 .39915977 .6384328 .36366273 .6484375 .32099916 .6484375 .2916616 .6484375 .24732971 .6467692 .18800354 .6434326 .12866719 .640096 .08433024 .63842776 .054992677 .63842776 .064331058 .6237488 .07033285 .6060689 .07299805 .5853882 .075663249 .56470748 .07699585 .5386912 .07699585 .5073395V.25117494M.16700745 .33496095H.18400574C.21666973 .33496095 .24549866 .33329774 .27049256 .3299713 .2954966 .3266449 .31766258 .31981913 .33699037 .30949403 .35632835 .29917909 .37149558 .28370158 .38249208 .26306153 .39349876 .24243164 .39900209 .21581014 .39900209 .18319702 .39900209 .13184612 .38483683 .09449768 .35650636 .07115173 .32817588 .047805787 .28734336 .036132814 .23400879 .036132814 .2166748 .036132814 .20367432 .038131715 .19500733 .042129518 .18634033 .04612732 .18000794 .05312602 .17601013 .06312561 .17201233 .073125209 .16950989 .08595276 .16850281 .10160828 .1675059 .117273967 .16700745 .14243572 .16700745 .1770935V.33496095Z"/>
<path id="font_14_2" d="M.30599977 .28808595C.34267173 .28808595 .36767069 .29058329 .3809967 .295578 .3943329 .30057273 .40100099 .31339518 .40100099 .3340454 .40100099 .3686727 .3869985 .39864097 .35899354 .4239502 .33099876 .44925944 .29400126 .46191407 .2480011 .46191407 .18200176 .46191407 .13066609 .43910218 .09399414 .3934784 .057332357 .3478546 .039001466 .29107667 .039001466 .22314453 .039001466 .19184368 .042999269 .16203816 .050994874 .13372803 .059000654 .10542806 .071004237 .079950969 .087005618 .057296754 .103006999 .03465271 .12333679 .016835532 .147995 .0038452149 .17266338-.009134929 .20066326-.015625 .23199463-.015625 .25-.015625 .26849876-.012771606 .28749085-.0070648195 .30649314-.0013682047 .32365928 .00634257 .33898927 .016067505 .35432945 .02579244 .3666636 .0368398 .37599183 .049209596 .3853302 .061589559 .3899994 .07411194 .3899994 .08677673V.09777832C.37799583 .08444214 .36082459 .073272708 .33848573 .06427002 .316157 .055277509 .29299418 .05078125 .2689972 .05078125 .2436676 .05078125 .22183228 .055597944 .20349121 .06523132 .18516033 .07487488 .16999309 .08833822 .1579895 .10562134 .1459961 .12290446 .13716634 .14234416 .13150025 .16394043 .12583415 .18554688 .1230011 .20831807 .1230011 .23225403 .1230011 .24554952 .12400309 .26216636 .12600708 .2821045L.1269989 .28808595H.30599977M.1329956 .31835938C.14033 .3501587 .15199788 .37698875 .16799927 .3988495 .18400066 .42071025 .20633443 .43164063 .23500061 .43164063 .2583364 .43164063 .2768351 .42401124 .29049684 .40875245 .3041687 .39349366 .31100465 .37591554 .31100465 .35601808 .31100465 .33883668 .30566917 .32826234 .29499818 .32429505 .28433738 .32033793 .2646688 .31835938 .23599243 .31835938H.1329956Z"/>
<path id="font_14_4" d="M.29400636 .44628907C.29533897 .43294273 .29600526 .42292787 .29600526 .4162445 .29600526 .3882192 .2911682 .35668437 .28149415 .32164 .27183024 .28659568 .2580007 .2440389 .2400055 .19396973 .2273407 .15792847 .2186737 .13256328 .21400452 .117874149L.21299744 .114868167C.21100362 .10686239 .20883687 .10068766 .20649719 .096343997 .20416768 .0920105 .20167034 .08984375 .19900513 .08984375 .19633992 .08984375 .19333904 .09484863 .19000244 .1048584 .18866985 .11153158 .18766785 .11553446 .18699646 .116867069L.09899902 .40811158C.09366862 .4267985 .08883667 .43880717 .084503177 .44413758 .08016968 .44947816 .07366943 .45214845 .06500244 .45214845 .06166585 .45214845 .05083211 .4513143 .03250122 .449646 .014170329 .4479777 .002670288 .44714356-.0019989014 .44714356L-.0079956059 .44615174C.011342366 .41347758 .028844199 .37514244 .044509889 .33114625 .06017558 .28715007 .08067322 .22314961 .10600281 .1391449 .11399841 .11181132 .121663417 .08647665 .1289978 .06314087L.15000916-.005859375H.20700073C.22699993 .058827718 .24716695 .11784363 .26750184 .17118836 .2878367 .22454326 .31266786 .28523255 .34199525 .35325624 .34199525 .3539276 .34233094 .3545939 .34300233 .35525514 .35233055 .37659709 .3599955 .39360047 .3659973 .40626527 .3719991 .41894023 .3799998 .4322815 .3899994 .44628907H.29400636Z"/>
<path id="font_14_3" d="M.12399292 .3707428C.12399292 .39071147 .13115947 .40585328 .14549256 .4161682 .15983582 .42648316 .17767334 .43164063 .19900513 .43164063 .22233074 .43164063 .24082439 .42780558 .25448609 .4201355 .26815797 .41246543 .28466288 .39663188 .30400086 .3726349 .30466209 .38396708 .30516053 .39562989 .30549623 .4076233 .3058319 .41962687 .30599977 .43065898 .30599977 .4407196 .30599977 .44274394 .30482994 .4444275 .30249024 .44577027 .30016075 .44711305 .29766337 .4484558 .29499818 .44979859 .29433695 .44979859 .29367066 .44979859 .29299928 .44979859 .2590027 .45787559 .22866822 .46191407 .20199585 .46191407 .15333049 .46191407 .11582947 .45325724 .0894928 .4359436 .0631663 .41864015 .05000305 .39167787 .05000305 .35505677 .05000305 .33642069 .05300395 .32010905 .059005739 .30612184 .06500753 .29214479 .07333883 .27949525 .083999637 .26817323 .097335819 .25419618 .12133789 .23688762 .15600586 .21624756 .18666585 .19893392 .20966085 .18262227 .22499085 .16731262 .24033101 .15200298 .2480011 .13136292 .2480011 .105392459 .2480011 .048802694 .21666973 .020507813 .15400696 .020507813 .12399801 .020507813 .10066223 .02684021 .083999637 .039505006 .067337039 .0521698 .05000305 .07283529 .03199768 .101501468 .03199768 .094167079 .03133138 .08350118 .02999878 .069503787 .027994791 .0508372 .026992798 .03717041 .026992798 .028503418 .026992798 .017822266 .032663984 .010472615 .044006349 .006454468 .08267212-.008265178 .119669597-.015625 .15499878-.015625 .20167034-.015625 .24283855-.00298055 .27850343 .02230835 .3141683 .047607423 .33200074 .08255005 .33200074 .12713623 .33200074 .15908814 .3228302 .18421428 .30448915 .20251465 .28615824 .22081502 .2586619 .23994954 .22200012 .2599182 .18932598 .27789308 .16482036 .2945353 .14848328 .30984498 .13215637 .32515464 .12399292 .3454539 .12399292 .3707428Z"/>
</defs>
<g clip-path="url(#clip_0)">
<use data-text=" " xlink:href="#font_1_1" transform="matrix(98.784,0,0,-98.784,164.51538,115.958919)"/>
<use data-text=" " xlink:href="#font_1_1" transform="matrix(98.784,0,0,-98.784,454.7757,115.958919)"/>
<use data-text=" " xlink:href="#font_2_1" transform="matrix(24.696,0,0,-24.696,397.6895,115.958919)"/>
<use data-text=" " xlink:href="#font_3_1" transform="matrix(89.18,0,0,-89.18,443.99177,128.77616)"/>
<use data-text=" " xlink:href="#font_4_1" transform="matrix(78.4784,0,0,-78.4784,179.1728,210.50482)"/>
<use data-text=" " xlink:href="#font_5_1" transform="matrix(78.4784,0,0,-78.4784,229.71317,236.58875)"/>
<use data-text=" " xlink:href="#font_6_1" transform="matrix(43.904,0,0,-43.904,163.06656,171.18125)"/>
<use data-text=" " xlink:href="#font_7_1" transform="matrix(78.4784,0,0,-78.4784,229.71317,236.70383)"/>
<use data-text=" " xlink:href="#font_8_1" transform="matrix(43.904,0,0,-43.904,223.27539,183.18418)"/>
<use data-text=" " xlink:href="#font_9_1" transform="matrix(82.32,0,0,-82.32,137.30588,243.86225)"/>
<use data-text=" " xlink:href="#font_10_1" transform="matrix(75.46,0,0,-75.46,295.6134,57.585809)"/>
</g>
<use data-text=" " xlink:href="#font_11_1" transform="matrix(75.46,0,0,-75.46,276.45063,64.831928)"/>
<use data-text="M" xlink:href="#font_12_1" transform="matrix(75.46,0,0,-75.46,129.52301,58.989915)"/>
<use data-text="a" xlink:href="#font_12_2" transform="matrix(75.46,0,0,-75.46,183.55237,58.989915)"/>
<use data-text="s" xlink:href="#font_12_4" transform="matrix(75.46,0,0,-75.46,214.56644,58.989915)"/>
<use data-text="s" xlink:href="#font_12_4" transform="matrix(75.46,0,0,-75.46,235.167,58.989915)"/>
<use data-text="i" xlink:href="#font_12_3" transform="matrix(75.46,0,0,-75.46,255.76761,58.989915)"/>
<use data-text=" " xlink:href="#font_13_1" transform="matrix(75.46,0,0,-75.46,269.8786,58.989915)"/>
<use data-text="&#x2019;" xlink:href="#font_13_2" transform="matrix(75.46,0,0,-75.46,282.4804,58.989915)"/>
<use data-text="s" xlink:href="#font_12_4" transform="matrix(75.46,0,0,-75.46,299.28334,58.989915)"/>
<use data-text="B" xlink:href="#font_14_1" transform="matrix(197.568,0,0,-197.568,-8.308998,169.2536)" fill="#e72502"/>
<use data-text="e" xlink:href="#font_14_2" transform="matrix(197.568,0,0,-197.568,105.66799,169.2536)" fill="#e72502"/>
<use data-text="v" xlink:href="#font_14_4" transform="matrix(197.568,0,0,-197.568,193.9628,169.2536)" fill="#e72502"/>
<use data-text="s" xlink:href="#font_14_3" transform="matrix(197.568,0,0,-197.568,274.9475,169.2536)" fill="#e72502"/>
</svg>
